<svg width="200" height="200" viewBox="0 0 200 200" fill="none" xmlns="http://www.w3.org/2000/svg">
<path fill-rule="evenodd" clip-rule="evenodd" d="M90.8033 0.263216C55.734 3.87862 25.8173 24.4113 10.4067 55.4412C5.56884 65.1833 2.71042 74.1459 0.925475 85.1705C-0.22118 92.2522 -0.320974 106.894 0.730583 113.713C3.60779 132.369 10.9843 149.284 22.3151 163.209C31.2676 174.212 42.7694 183.348 55.5818 189.635C65.7459 194.622 74.4789 197.396 85.3244 199.084C93.1706 200.305 106.829 200.305 114.676 199.084C125.562 197.39 134.322 194.603 144.459 189.609C154.689 184.569 162.201 179.194 170.576 170.921C178.765 162.834 184.651 154.618 189.838 144.037C194.732 134.053 197.509 125.125 199.269 113.713C200.321 106.894 200.221 92.2522 199.075 85.1705C194.46 56.6675 178.988 32.3805 155.417 16.6405C150.233 13.1793 140.147 8.04847 134.394 5.94731C128.956 3.96118 120.792 1.8968 114.797 0.991776C108.768 0.0820546 96.2489 -0.298267 90.8033 0.263216ZM114.089 17.7889C145.485 23.3744 171.373 46.4653 180.056 76.6297C182.603 85.4761 183.148 89.6639 183.124 100.214C183.1 110.75 182.587 114.646 180.087 123.299C172.262 150.374 150.366 172.267 123.285 180.09C114.521 182.622 110.757 183.11 100 183.11C89.243 183.11 85.4794 182.622 76.7147 180.09C49.6344 172.267 27.738 150.374 19.9134 123.299C17.381 114.536 16.8929 110.773 16.8929 100.018C16.8929 91.9146 17.0217 89.7355 17.7246 85.9319C20.9489 68.4919 28.8123 53.4261 41.1061 41.1349C54.5647 27.6785 71.5062 19.4491 90.6076 17.0893C95.5817 16.475 108.94 16.873 114.089 17.7889ZM86.3501 65.472C85.623 65.83 84.699 66.6627 84.2971 67.3216C83.5993 68.4657 83.566 69.9568 83.5649 100.153C83.5633 128.736 83.6251 131.891 84.2036 132.87C85.6727 135.357 89.0117 135.976 91.5742 134.238C92.3812 133.69 102.248 126.559 113.5 118.391C130.206 106.263 134.081 103.281 134.626 102.132C135.36 100.587 135.215 98.7846 134.246 97.4022C133.532 96.383 91.4564 65.74 90.0225 65.195C88.6098 64.6578 87.8932 64.7122 86.3501 65.472Z" fill="url(#paint0_linear_5_4)"/>
<defs>
<linearGradient id="paint0_linear_5_4" x1="26" y1="-2.61262e-06" x2="188.5" y2="176.5" gradientUnits="userSpaceOnUse">
<stop stop-color="#F5F5F5"/>
<stop offset="1" stop-color="#E5CD5F"/>
</linearGradient>
</defs>
</svg>
